<svg width="240" height="64" viewBox="0 0 240 64" fill="none" xmlns="http://www.w3.org/2000/svg">
<path fill-rule="evenodd" clip-rule="evenodd" d="M82.5394 37.2947C82.5394 32.6543 79.1141 30.0028 75.4682 30.0028C71.7118 30.0028 68.3418 32.599 68.3418 37.2947C68.3418 41.9903 71.7118 44.5869 75.4682 44.5869C79.1141 44.5869 82.5394 41.9351 82.5394 37.2947ZM90.9362 37.2947C90.9362 47.294 83.7545 52.2103 77.2361 52.2103C72.154 52.2103 69.1705 49.4484 68.7287 48.3986H68.5629V50.5399C68.5629 51.1575 68.062 51.658 67.4444 51.658H61.1183C60.5008 51.658 60.0002 51.1575 60.0002 50.5399V13.5534C60.0002 12.9358 60.5008 12.4353 61.1183 12.4353H67.4444C68.062 12.4353 68.5629 12.9358 68.5629 13.5534V26.1907H68.7287C69.1705 25.1413 72.154 22.379 77.2361 22.379C83.7545 22.379 90.9362 27.2957 90.9362 37.2947Z" fill="#CED4D9"/>
<path fill-rule="evenodd" clip-rule="evenodd" d="M114.248 23.5531V29.5201C114.248 30.1638 113.706 30.6782 113.063 30.6356C112.806 30.6186 112.541 30.6103 112.26 30.6103C106.569 30.6103 103.31 34.4221 103.31 39.8359V50.5399C103.31 51.1574 102.809 51.658 102.191 51.658H95.8658C95.2478 51.658 94.7473 51.1574 94.7473 50.5399V24.0501C94.7473 23.4326 95.2478 22.9316 95.8658 22.9316H102.191C102.809 22.9316 103.31 23.4326 103.31 24.0501V30.7209C104.249 26.0805 107.012 22.3793 112.204 22.3793C112.562 22.3793 112.921 22.395 113.288 22.445C113.839 22.5194 114.248 22.9969 114.248 23.5531Z" fill="#CED4D9"/>
<path fill-rule="evenodd" clip-rule="evenodd" d="M138.444 37.2947C138.444 32.599 135.074 30.0029 131.318 30.0029C127.672 30.0029 124.302 32.6543 124.302 37.2947C124.302 41.9351 127.672 44.5869 131.318 44.5869C135.074 44.5869 138.444 41.9903 138.444 37.2947ZM115.85 37.2947C115.85 27.2957 123.031 22.379 129.55 22.379C134.632 22.379 137.615 25.1414 138.058 26.1907H138.223V24.0498C138.223 23.4322 138.724 22.9317 139.341 22.9317H145.668C146.285 22.9317 146.786 23.4322 146.786 24.0498V50.54C146.786 51.1575 146.285 51.6581 145.668 51.6581H139.341C138.724 51.6581 138.223 51.1575 138.223 50.54V48.3986H138.058C137.615 49.4484 134.632 52.2104 129.55 52.2104C123.031 52.2104 115.85 47.294 115.85 37.2947Z" fill="#CED4D9"/>
<path fill-rule="evenodd" clip-rule="evenodd" d="M170.323 35.3829L177.793 24.7224C178.314 23.9816 177.784 22.9606 176.878 22.9606H169.97C169.593 22.9606 169.241 23.1512 169.034 23.4676L165.784 28.4545" fill="#CED4D9"/>
<path fill-rule="evenodd" clip-rule="evenodd" d="M165.94 45.5011L170.025 51.2187C170.234 51.5129 170.573 51.687 170.935 51.687H177.915C178.834 51.687 179.361 50.6407 178.814 49.9026L170.663 38.9113" fill="#CED4D9"/>
<mask id="mask0_918_782" style="mask-type:alpha" maskUnits="userSpaceOnUse" x="150" y="22" width="19" height="30">
<path d="M152.205 22.9605C151.3 22.9605 150.769 23.9816 151.291 24.7223L159.885 36.937L150.27 49.9025C149.722 50.6406 150.249 51.6869 151.168 51.6869H158.149C158.51 51.6869 158.849 51.5128 159.059 51.2186L164.801 43.1799L168.841 37.4175L164.801 30.7498L160.05 23.4676C159.843 23.1516 159.491 22.9605 159.113 22.9605H152.205Z" fill="white"/>
</mask>
<g mask="url(#mask0_918_782)">
<path d="M152.205 22.9605C151.3 22.9605 150.769 23.9816 151.291 24.7223L159.885 36.937L150.27 49.9025C149.722 50.6406 150.249 51.6869 151.168 51.6869H158.149C158.51 51.6869 158.849 51.5128 159.059 51.2186L164.801 43.1799L168.841 37.4175L164.801 30.7498L160.05 23.4676C159.843 23.1516 159.491 22.9605 159.113 22.9605H152.205Z" fill="url(#paint0_linear_918_782)"/>
</g>
<defs>
<linearGradient id="paint0_linear_918_782" x1="156.908" y1="22.9605" x2="170.289" y2="48.0477" gradientUnits="userSpaceOnUse">
<stop stop-color="white"/>
<stop offset="1" stop-color="white" stop-opacity="0"/>
</linearGradient>
</defs>
</svg>
