<svg width="240" height="64" viewBox="0 0 240 64" fill="none" xmlns="http://www.w3.org/2000/svg">
<path d="M40.0726 10H4.35572C1.95012 10 0 11.9313 0 14.3137V49.6863C0 52.0687 1.95012 54 4.35572 54H40.0726C42.4782 54 44.4283 52.0687 44.4283 49.6863V14.3137C44.4283 11.9313 42.4782 10 40.0726 10Z" fill="#CED4D9" fill-opacity="0.2"/>
<path fill-rule="evenodd" clip-rule="evenodd" d="M25.263 15.6077C25.263 17.0372 23.9955 18.196 22.4319 18.196C20.8683 18.196 19.6006 17.0372 19.6006 15.6077C19.6006 14.1783 20.8683 13.0195 22.4319 13.0195C23.9955 13.0195 25.263 14.1783 25.263 15.6077Z" fill="#CED4D9"/>
<path fill-rule="evenodd" clip-rule="evenodd" d="M33.9754 29.0452C33.9754 29.5715 33.666 30.0506 33.1813 30.2742L30.842 31.353L33.1813 32.4318C33.666 32.6552 33.9754 33.1343 33.9754 33.6609C33.9754 34.6547 32.9251 35.3116 32.0102 34.8897L28.1373 33.1036C27.4469 32.7852 27.0062 32.1029 27.0062 31.353C27.0062 30.6031 27.4469 29.9208 28.1373 29.6024L32.0102 27.8161C32.9251 27.3944 33.9754 28.0513 33.9754 29.0452ZM26.1294 35.9553C25.9776 36.9137 25.2914 38.902 22.215 38.902C19.1386 38.902 18.4525 36.9137 18.3005 35.9553C18.2584 35.6908 18.4562 35.451 18.7142 35.451H25.7157C25.9737 35.451 26.1717 35.6908 26.1294 35.9553ZM16.117 32.503C16.117 33.6548 15.1418 34.5882 13.9391 34.5882C12.7364 34.5882 11.7612 33.6548 11.7612 32.503V30.2029C11.7612 29.0511 12.7364 28.1177 13.9391 28.1177C15.1418 28.1177 16.117 29.0511 16.117 30.2029V32.503ZM33.4113 19.0588H28.2094C27.5136 19.0588 26.8533 19.3645 26.4047 19.8945L25.7283 20.6937C25.2799 21.2237 24.6194 21.5294 23.9236 21.5294H20.5063C19.8105 21.5294 19.15 21.2237 18.7016 20.6937L18.0252 19.8945C17.5766 19.3645 16.9161 19.0588 16.2203 19.0588H11.0186C9.02317 19.0588 7.40552 20.6699 7.40552 22.6576V39.6169C7.40552 41.6045 9.02317 43.2157 11.0186 43.2157H33.4113C35.4067 43.2157 37.0244 41.6045 37.0244 39.6169V22.6576C37.0244 20.6699 35.4067 19.0588 33.4113 19.0588Z" fill="#CED4D9"/>
<path fill-rule="evenodd" clip-rule="evenodd" d="M26.6888 46.2352H18.6107C17.4735 46.2352 16.5518 47.1041 16.5518 48.1763C16.5518 49.2485 17.4735 50.1175 18.6107 50.1175H26.6888C27.8258 50.1175 28.7478 49.2485 28.7478 48.1763C28.7478 47.1041 27.8258 46.2352 26.6888 46.2352Z" fill="#CED4D9"/>
<path fill-rule="evenodd" clip-rule="evenodd" d="M52.7043 32.412C52.7043 26.3355 57.1806 22.0783 63.3455 22.0783C66.84 22.0783 69.7849 23.4328 71.4339 26.1036L69.3532 27.4967C67.9394 25.4451 65.7407 24.4782 63.3455 24.4782C58.8297 24.4782 55.5312 27.6517 55.5312 32.412C55.5312 37.2112 58.8297 40.3461 63.3455 40.3461C65.7407 40.3461 67.9394 39.4171 69.3532 37.3658L71.4339 38.7593C69.7849 41.3911 66.84 42.7842 63.3455 42.7842C57.1806 42.7842 52.7043 38.4884 52.7043 32.412Z" fill="#CED4D9"/>
<path fill-rule="evenodd" clip-rule="evenodd" d="M91.0345 32.2154C91.0345 27.4273 87.7983 24.2352 83.4315 24.2352C79.0647 24.2352 75.7895 27.4273 75.7895 32.2154C75.7895 37.0035 79.0647 40.196 83.4315 40.196C87.7983 40.196 91.0345 37.0035 91.0345 32.2154ZM72.7405 32.412C72.7405 26.3745 77.1955 22.0783 83.2137 22.0783C89.2319 22.0783 93.6479 26.3745 93.6479 32.412C93.6479 38.4494 89.2319 42.7842 83.2137 42.7842C77.1955 42.7842 72.7405 38.4494 72.7405 32.412Z" fill="#CED4D9"/>
<path fill-rule="evenodd" clip-rule="evenodd" d="M114.12 32.2156C114.12 27.4275 110.845 24.2354 106.518 24.2354C102.151 24.2354 98.8754 27.4275 98.8754 32.2156C98.8754 37.0037 102.151 40.1962 106.518 40.1962C110.845 40.1962 114.12 37.0037 114.12 32.2156ZM116.734 13.8824V42.5909H114.067V38.5672C112.38 41.3144 109.516 42.7844 106.104 42.7844C100.22 42.7844 95.8264 38.5672 95.8264 32.4154C95.8264 26.2635 100.22 22.0849 106.104 22.0849C109.399 22.0849 112.223 23.478 113.949 26.1089V13.8824H116.734Z" fill="#CED4D9"/>
<path fill-rule="evenodd" clip-rule="evenodd" d="M123.703 31.1372H138.512C138.155 27.075 135.177 24.2352 131.088 24.2352C127.038 24.2352 124.06 27.075 123.703 31.1372ZM141.085 33.2633H123.492C123.813 37.5208 127.171 40.3461 131.769 40.3461C134.328 40.3461 136.607 39.4558 138.206 37.6754L139.806 39.4557C137.927 41.623 135.008 42.7842 131.689 42.7842C125.132 42.7842 120.654 38.4494 120.654 32.412C120.654 26.3745 125.012 22.0783 130.929 22.0783C136.847 22.0783 141.126 26.2972 141.126 32.412C141.126 32.6442 141.085 32.9538 141.085 33.2633Z" fill="#CED4D9"/>
<path fill-rule="evenodd" clip-rule="evenodd" d="M160.29 31.746C160.29 28.2978 157.648 25.9608 153.994 25.9608C150.301 25.9608 147.659 28.2978 147.659 31.746C147.659 35.2326 150.301 37.6078 153.994 37.6078C157.648 37.6078 160.29 35.2326 160.29 31.746ZM165.082 21.8807V39.5498C165.082 47.117 161.173 50.549 153.936 50.549C150.065 50.549 146.234 49.5352 143.874 47.5851L146.041 43.9184C147.86 45.4396 150.801 46.4148 153.665 46.4148C158.231 46.4148 160.244 44.3086 160.244 40.0958V39.0038C158.541 40.8759 156.103 41.7732 153.316 41.7732C147.395 41.7732 142.867 37.7166 142.867 31.671C142.867 25.6254 147.395 21.647 153.316 21.647C156.219 21.647 158.773 22.5829 160.477 24.6502V21.8807H165.082Z" fill="#CED4D9"/>
<path fill-rule="evenodd" clip-rule="evenodd" d="M169.873 42.7843H174.665V22.0784H169.873V42.7843ZM169.438 15.608C169.438 13.9172 170.734 12.5882 172.487 12.5882C174.24 12.5882 175.536 13.8368 175.536 15.487C175.536 17.2586 174.278 18.6274 172.487 18.6274C170.734 18.6274 169.438 17.2992 169.438 15.608Z" fill="#CED4D9"/>
<path fill-rule="evenodd" clip-rule="evenodd" d="M192.523 36.1235V33.7255H187.544C184.264 33.7255 183.376 34.9631 183.376 36.4711C183.376 38.2119 184.843 39.3333 187.313 39.3333C189.666 39.3333 191.712 38.2501 192.523 36.1235ZM197.314 30.4186V42.5138H192.757V40.0023C191.599 41.7799 189.359 42.7843 186.27 42.7843C181.558 42.7843 178.585 40.1952 178.585 36.6018C178.585 33.1623 180.901 30.4575 187.158 30.4575H192.487V30.1481C192.487 27.3275 190.788 25.6657 187.351 25.6657C185.033 25.6657 182.64 26.4385 181.095 27.7138L179.203 24.1971C181.404 22.4967 184.609 21.647 187.93 21.647C193.877 21.647 197.314 24.4676 197.314 30.4186Z" fill="#CED4D9"/>
<path fill-rule="evenodd" clip-rule="evenodd" d="M223.013 30.8066V42.7843H218.045V31.4328C218.045 27.7142 216.177 25.9136 212.997 25.9136C209.46 25.9136 207.075 28.0273 207.075 32.2157V42.7843H202.106V21.8816H206.836V24.5827C208.466 22.6644 211.049 21.647 214.15 21.647C219.238 21.647 223.013 24.5042 223.013 30.8066Z" fill="#CED4D9"/>
<path fill-rule="evenodd" clip-rule="evenodd" d="M240.001 41.3942C238.834 42.3213 237.084 42.7844 235.334 42.7844C230.784 42.7844 228.178 40.3904 228.178 35.833V25.9072H224.756V22.0451H228.178V17.3335H233.04V22.0451H238.601V25.9072H233.04V35.717C233.04 37.7253 234.051 38.8066 235.918 38.8066C236.929 38.8066 237.901 38.5363 238.64 37.9571L240.001 41.3942Z" fill="#CED4D9"/>
</svg>
