<svg width="240" height="64" viewBox="0 0 240 64" fill="none" xmlns="http://www.w3.org/2000/svg">
<path d="M20.122 11.0426C22.9956 11.0426 25.3252 8.69398 25.3252 5.79674C25.3252 2.89951 22.9956 0.550842 20.122 0.550842C17.2483 0.550842 14.9187 2.89951 14.9187 5.79674C14.9187 8.69398 17.2483 11.0426 20.122 11.0426Z" fill="#CED4D9"/>
<path d="M45.8781 63.4492C48.7517 63.4492 51.0813 61.1005 51.0813 58.2033C51.0813 55.306 48.7517 52.9574 45.8781 52.9574C43.0044 52.9574 40.6748 55.306 40.6748 58.2033C40.6748 61.1005 43.0044 63.4492 45.8781 63.4492Z" fill="#CED4D9"/>
<path d="M45.8781 23.9738C48.7517 23.9738 51.0813 21.6251 51.0813 18.7279C51.0813 15.8306 48.7517 13.482 45.8781 13.482C43.0044 13.482 40.6748 15.8306 40.6748 18.7279C40.6748 21.6251 43.0044 23.9738 45.8781 23.9738Z" fill="#CED4D9"/>
<path d="M20.122 49.8361C22.9956 49.8361 25.3252 47.4874 25.3252 44.5902C25.3252 41.6929 22.9956 39.3443 20.122 39.3443C17.2483 39.3443 14.9187 41.6929 14.9187 44.5902C14.9187 47.4874 17.2483 49.8361 20.122 49.8361Z" fill="#CED4D9"/>
<path d="M20.122 36.9574C22.9956 36.9574 25.3252 34.6087 25.3252 31.7115C25.3252 28.8142 22.9956 26.4656 20.122 26.4656C17.2483 26.4656 14.9187 28.8142 14.9187 31.7115C14.9187 34.6087 17.2483 36.9574 20.122 36.9574Z" fill="#CED4D9"/>
<path d="M45.8781 49.8361C48.7517 49.8361 51.0813 47.4874 51.0813 44.5902C51.0813 41.6929 48.7517 39.3443 45.8781 39.3443C43.0044 39.3443 40.6748 41.6929 40.6748 44.5902C40.6748 47.4874 43.0044 49.8361 45.8781 49.8361Z" fill="#CED4D9"/>
<path d="M45.8781 36.9574C48.7517 36.9574 51.0813 34.6087 51.0813 31.7115C51.0813 28.8142 48.7517 26.4656 45.8781 26.4656C43.0044 26.4656 40.6748 28.8142 40.6748 31.7115C40.6748 34.6087 43.0044 36.9574 45.8781 36.9574Z" fill="#CED4D9"/>
<path d="M32.9999 36.9574C35.8736 36.9574 38.2031 34.6087 38.2031 31.7115C38.2031 28.8142 35.8736 26.4656 32.9999 26.4656C30.1262 26.4656 27.7966 28.8142 27.7966 31.7115C27.7966 34.6087 30.1262 36.9574 32.9999 36.9574Z" fill="#CED4D9"/>
<path d="M65 37.5017C65.1904 42.1402 68.9648 45 74.7128 45C80.7552 45 84.5642 42.0007 84.5642 37.2227C84.5642 33.4735 82.4173 31.3635 77.3445 30.1952L74.4704 29.5325C71.406 28.8001 70.1421 27.8236 70.1421 26.1496C70.1421 24.057 72.0466 22.662 74.8687 22.662C77.7254 22.662 79.6818 24.0744 79.8896 26.4286H84.1487C84.0448 21.9993 80.409 19 74.9033 19C69.4669 19 65.606 22.0168 65.606 26.4809C65.606 30.0731 67.7875 32.3052 72.3928 33.3689L75.6304 34.1362C78.7815 34.886 80.0627 35.9323 80.0627 37.7458C80.0627 39.8384 77.9678 41.338 74.9552 41.338C71.9081 41.338 69.6054 39.8209 69.3284 37.5017H65Z" fill="#CED4D9"/>
<path d="M103.678 32.6888C103.384 28.8001 100.389 25.7136 95.5409 25.7136C90.2084 25.7136 86.7457 29.4279 86.7457 35.3394C86.7457 41.338 90.2084 44.9477 95.5755 44.9477C100.181 44.9477 103.349 42.2274 103.696 38.0946H99.6269C99.2287 40.1871 97.809 41.4427 95.6275 41.4427C92.8919 41.4427 91.126 39.2106 91.126 35.3394C91.126 31.5379 92.8746 29.2361 95.5928 29.2361C97.8955 29.2361 99.2633 30.7183 99.6096 32.6888H103.678Z" fill="#CED4D9"/>
<path d="M106.275 44.5815H110.586V33.8223C110.586 31.224 112.058 29.6372 114.499 29.6372C115.226 29.6372 115.884 29.7418 116.248 29.8813V25.9577C115.936 25.888 115.451 25.7834 114.897 25.7834C112.733 25.7834 111.123 27.0738 110.5 29.3233H110.413V26.0973H106.275V44.5815Z" fill="#CED4D9"/>
<path d="M125.684 29.0791C128.159 29.0791 129.821 30.9101 129.908 33.5258H121.338C121.511 30.945 123.26 29.0791 125.684 29.0791ZM129.925 39.0537C129.458 40.5882 127.934 41.5996 125.926 41.5996C123.104 41.5996 121.303 39.6117 121.303 36.6472V36.3856H134.133V34.9732C134.133 29.3581 130.878 25.7136 125.666 25.7136C120.368 25.7136 117.01 29.5674 117.01 35.4091C117.01 41.3032 120.334 44.9477 125.839 44.9477C130.185 44.9477 133.405 42.5412 133.959 39.0537H129.925Z" fill="#CED4D9"/>
<path d="M144.832 29.0791C147.308 29.0791 148.97 30.9101 149.057 33.5258H140.487C140.66 30.945 142.408 29.0791 144.832 29.0791ZM149.074 39.0537C148.607 40.5882 147.083 41.5996 145.075 41.5996C142.253 41.5996 140.452 39.6117 140.452 36.6472V36.3856H153.281V34.9732C153.281 29.3581 150.026 25.7136 144.815 25.7136C139.517 25.7136 136.158 29.5674 136.158 35.4091C136.158 41.3032 139.482 44.9477 144.988 44.9477C149.334 44.9477 152.554 42.5412 153.108 39.0537H149.074Z" fill="#CED4D9"/>
<path d="M156.069 44.5815H160.38V33.8746C160.38 31.224 161.955 29.4279 164.431 29.4279C166.89 29.4279 168.101 30.8927 168.101 33.5084V44.5815H172.413V32.6365C172.413 28.3642 170.11 25.7485 166.059 25.7485C163.236 25.7485 161.28 27.0738 160.293 29.271H160.207V26.0973H156.069V44.5815Z" fill="#CED4D9"/>
<path d="M197.379 44.5815V19.4185H192.929V29.8813H180.775V19.4185H176.308V44.5815H180.775V33.6653H192.929V44.5815H197.379Z" fill="#CED4D9"/>
<path d="M217.635 26.0973H213.324V36.7867C213.324 39.4722 211.783 41.2508 209.29 41.2508C206.866 41.2508 205.585 39.8209 205.585 37.1704V26.0973H201.274V38.0423C201.274 42.3146 203.802 44.9128 207.784 44.9128C210.571 44.9128 212.424 43.6224 213.393 41.3729H213.48V44.5815H217.635V26.0973Z" fill="#CED4D9"/>
<path d="M231.434 44.8779C236.074 44.8779 239 41.2508 239 35.3394C239 29.4279 236.057 25.7834 231.434 25.7834C228.837 25.7834 226.742 27.1087 225.703 29.271H225.599V19.4185H221.288V44.5815H225.513V41.4252H225.599C226.673 43.5701 228.733 44.8779 231.434 44.8779ZM230.101 29.3581C232.854 29.3581 234.585 31.6774 234.585 35.3394C234.585 39.0188 232.871 41.3206 230.101 41.3206C227.435 41.3206 225.582 38.9665 225.582 35.3394C225.582 31.7471 227.435 29.3581 230.101 29.3581Z" fill="#CED4D9"/>
</svg>
