<svg width="240" height="64" viewBox="0 0 240 64" fill="none" xmlns="http://www.w3.org/2000/svg">
<path d="M58.3564 24.9336C60.3395 24.9336 61.679 24.8641 62.3747 24.7248V25.8207C61.6442 26.099 60.9658 26.6209 60.3395 27.3863C59.7481 28.1169 59.1914 29.2823 58.6696 30.8827L52.1464 51.8092C51.5897 51.7396 50.7547 51.7048 49.6415 51.7048C48.4934 51.7048 47.641 51.7396 47.0844 51.8092L40.8742 33.753L36.1254 51.8092C35.5687 51.7396 34.7337 51.7048 33.6205 51.7048C32.4724 51.7048 31.62 51.7396 31.0634 51.8092L23.0268 28.7432C22.6093 27.5255 22.1396 26.7427 21.6178 26.3947C21.0959 26.012 20.5566 25.8207 20 25.8207V24.7248C22.7484 24.9336 25.8448 25.0379 29.2891 25.0379C31.0286 25.0379 33.2899 24.9336 36.0731 24.7248V25.8207C34.9947 25.8207 34.2119 25.9077 33.7248 26.0817C33.2725 26.2556 33.0464 26.6036 33.0464 27.1254C33.0464 27.2297 33.0812 27.4558 33.1508 27.8038L37.4822 42.2593L41.9702 24.7771H42.0223C43.1357 24.8466 43.9707 24.8814 44.5272 24.8814C45.2231 24.8814 46.232 24.8466 47.554 24.7771L53.5032 43.8769L55.7472 36.4145C56.3038 34.501 56.5822 32.8311 56.5822 31.4047C56.5822 29.665 56.1995 28.3257 55.4341 27.3863C54.6687 26.447 53.6423 25.9252 52.3551 25.8207V24.7248C53.6423 24.8641 55.6428 24.9336 58.3564 24.9336Z" fill="#CED4D9"/>
<path d="M73.8827 46.9559C73.8827 48.3823 74.0914 49.3739 74.5089 49.9305C74.9611 50.4524 75.7265 50.7132 76.8051 50.7132V51.8092C73.0478 51.6701 70.5776 51.6005 69.3947 51.6005C68.2118 51.6005 65.6026 51.6701 61.5669 51.8092V50.7132C62.6454 50.7132 63.3934 50.4524 63.8108 49.9305C64.2631 49.3739 64.4892 48.3823 64.4892 46.9559V30.4131C64.4892 28.8128 64.2631 27.6472 63.8108 26.9167C63.3934 26.186 62.6454 25.8207 61.5669 25.8207V24.7248C62.6801 24.8292 63.7587 24.8813 64.8024 24.8813C68.4206 24.8813 71.4474 24.6379 73.8827 24.1508V46.9559Z" fill="#CED4D9"/>
<path d="M97.6661 23.9942C100.449 23.9942 102.415 24.6901 103.563 26.0817C104.085 26.7079 104.468 27.5602 104.711 28.6388C104.955 29.6825 105.076 31.0741 105.076 32.8136V46.956C105.076 48.3823 105.285 49.3739 105.703 49.9306C106.155 50.4524 106.92 50.7133 107.999 50.7133V51.8092C104.241 51.6701 101.806 51.6005 100.693 51.6005C99.51 51.6005 97.0399 51.6701 93.2826 51.8092V50.7133C94.1871 50.7133 94.8134 50.4524 95.1612 49.9306C95.5091 49.3739 95.683 48.3823 95.683 46.956V29.9956C95.683 28.8823 95.4743 28.0647 95.0568 27.5428C94.6741 26.9863 94.0305 26.7079 93.126 26.7079C92.117 26.7079 91.2299 27.0733 90.4645 27.8038C89.7338 28.4996 89.3686 29.3867 89.3686 30.4653V46.956C89.3686 48.3823 89.5426 49.3739 89.8904 49.9306C90.2384 50.4524 90.8645 50.7133 91.7692 50.7133V51.8092C88.29 51.6701 85.994 51.6005 84.8806 51.6005C83.6978 51.6005 81.0884 51.6701 77.0527 51.8092V50.7133C78.1313 50.7133 78.8792 50.4524 79.2968 49.9306C79.7491 49.3739 79.9752 48.3823 79.9752 46.956V30.4131C79.9752 28.8128 79.7491 27.6472 79.2968 26.9167C78.8792 26.186 78.1313 25.8207 77.0527 25.8207V24.7248C78.1661 24.8292 79.2445 24.8813 80.2883 24.8813C83.9065 24.8813 86.9332 24.6379 89.3686 24.1508V27.9082C90.9342 25.2989 93.7 23.9942 97.6661 23.9942Z" fill="#CED4D9"/>
<path d="M127.447 23.9942C130.16 23.9942 132.352 25.1075 134.022 27.3341C135.692 29.5607 136.527 32.8136 136.527 37.0929C136.527 42.6245 135.414 46.5907 133.187 48.9912C130.961 51.3569 128.021 52.5398 124.368 52.5398C123.255 52.5398 122.315 52.505 121.55 52.4355C120.819 52.3659 120.141 52.1919 119.515 51.9136C118.227 51.3918 116.888 51.1308 115.496 51.1308C114.453 51.1308 113.478 51.2699 112.574 51.5482C111.669 51.8266 110.974 52.1919 110.486 52.6442L109.756 52.1223C109.999 51.3918 110.121 50.435 110.121 49.2521V17.2623C110.121 15.6619 109.895 14.4964 109.443 13.7658C109.025 13.0352 108.277 12.6699 107.199 12.6699V11.574C108.277 11.6784 109.356 11.7306 110.434 11.7306C114.052 11.7306 117.079 11.4871 119.515 11V27.9082C121.115 25.2989 123.759 23.9942 127.447 23.9942ZM121.967 51.4961C125.168 51.4961 126.768 47.0951 126.768 38.2931C126.768 34.0139 126.455 31.022 125.829 29.3172C125.203 27.5777 124.351 26.7079 123.272 26.7079C122.263 26.7079 121.376 27.0733 120.611 27.8038C119.88 28.4996 119.515 29.3867 119.515 30.4653V50.8698C120.315 51.2874 121.132 51.4961 121.967 51.4961Z" fill="#CED4D9"/>
<path d="M144.316 52.1745C142.089 52.1745 140.402 51.5831 139.254 50.4002C138.141 49.1826 137.584 47.6691 137.584 45.86C137.584 44.2945 137.984 43.0072 138.784 41.9983C139.619 40.9546 140.593 40.1544 141.707 39.5978C142.82 39.0411 144.264 38.4671 146.038 37.8756C147.917 37.2494 149.291 36.6753 150.161 36.1535C151.031 35.6317 151.465 34.901 151.465 33.9617V29.3172C151.465 28.2039 151.187 27.2124 150.631 26.3426C150.074 25.4729 149.117 25.0379 147.76 25.0379C146.681 25.0379 145.708 25.3336 144.838 25.9252C146.021 26.3426 146.891 26.9688 147.447 27.8038C148.038 28.6039 148.334 29.5085 148.334 30.5174C148.334 31.8742 147.847 32.9702 146.873 33.8052C145.934 34.6053 144.785 35.0054 143.428 35.0054C142.072 35.0054 140.993 34.588 140.193 33.753C139.428 32.8832 139.045 31.7872 139.045 30.4653C139.045 29.4216 139.306 28.5169 139.828 27.7517C140.35 26.9863 141.167 26.2904 142.281 25.6642C144.228 24.5509 147.012 23.9942 150.631 23.9942C152.544 23.9942 154.196 24.1856 155.588 24.5682C156.979 24.9162 158.162 25.5946 159.136 26.6036C159.832 27.3341 160.285 28.2561 160.493 29.3693C160.738 30.4479 160.859 31.9612 160.859 33.9096V47.8953C160.859 48.765 160.911 49.3564 161.015 49.6696C161.155 49.9827 161.381 50.1393 161.693 50.1393C161.938 50.1393 162.198 50.0697 162.476 49.9306C162.755 49.7566 163.016 49.5653 163.259 49.3564L163.782 50.2437C162.285 51.5309 160.146 52.1745 157.362 52.1745C155.275 52.1745 153.814 51.8266 152.979 51.1308C152.144 50.4002 151.691 49.426 151.622 48.2083C149.987 50.8525 147.551 52.1745 144.316 52.1745ZM149.534 47.9996C150.265 47.9996 150.908 47.7039 151.465 47.1125V36.1013C151.152 36.6232 150.578 37.3016 149.744 38.1366C148.804 39.0411 148.091 39.9282 147.604 40.798C147.117 41.633 146.873 42.7811 146.873 44.2423C146.873 46.7472 147.76 47.9996 149.534 47.9996Z" fill="#CED4D9"/>
<path d="M177.398 23.9942C178.823 23.9942 180.128 24.1508 181.312 24.4639C182.529 24.7422 183.52 25.1075 184.286 25.5598C185.26 26.1164 186.026 26.8644 186.582 27.8038C187.139 28.7432 187.417 29.8043 187.417 30.9871C187.417 32.4483 186.947 33.666 186.007 34.6401C185.069 35.5795 183.869 36.0491 182.407 36.0491C180.911 36.0491 179.728 35.6317 178.859 34.7967C178.023 33.9269 177.606 32.7788 177.606 31.3524C177.606 30.1 178.006 29.004 178.806 28.0647C179.642 27.0906 180.668 26.447 181.885 26.1339C181.363 25.7163 180.668 25.5076 179.798 25.5076C177.571 25.5076 176.006 26.7079 175.101 29.1085C174.196 31.4742 173.744 34.2923 173.744 37.5625C173.744 40.9025 174.371 43.2855 175.623 44.7119C176.875 46.1384 178.423 46.8515 180.268 46.8515C182.807 46.8515 184.912 45.6861 186.582 43.3551L187.469 43.6682C186.703 46.1036 185.399 48.191 183.555 49.9306C181.746 51.6701 179.415 52.5398 176.562 52.5398C172.771 52.5398 169.726 51.4091 167.43 49.1477C165.134 46.8864 163.985 43.2681 163.985 38.2931C163.985 33.5269 165.204 29.9607 167.638 27.5951C170.108 25.1945 173.362 23.9942 177.398 23.9942Z" fill="#CED4D9"/>
<path d="M216.724 47.9996C216.794 48.1388 216.95 48.4345 217.194 48.8867C217.437 49.339 217.681 49.7217 217.924 50.0348C218.203 50.3132 218.498 50.5394 218.811 50.7132V51.8092C215.611 51.6701 213.506 51.6005 212.497 51.6005C211.349 51.6005 208.896 51.6701 205.139 51.8092V50.7132C206.147 50.7132 206.653 50.3828 206.653 49.7217C206.653 49.4783 206.583 49.2173 206.443 48.939L201.852 39.2325C201.643 38.8498 201.399 38.5714 201.12 38.3975C200.878 38.2236 200.565 38.1191 200.182 38.0844V46.9559C200.182 48.3823 200.39 49.3739 200.808 49.9305C201.26 50.4524 202.025 50.7132 203.103 50.7132V51.8092C199.346 51.6701 196.876 51.6005 195.693 51.6005C194.511 51.6005 191.901 51.6701 187.865 51.8092V50.7132C188.944 50.7132 189.692 50.4524 190.109 49.9305C190.562 49.3739 190.788 48.3823 190.788 46.9559V17.2623C190.788 15.6619 190.562 14.4964 190.109 13.7658C189.692 13.0352 188.944 12.6699 187.865 12.6699V11.574C188.944 11.6784 190.022 11.7306 191.101 11.7306C194.719 11.7306 197.746 11.4871 200.182 11V37.0929C201.156 37.0929 201.903 36.8319 202.426 36.3101L206.443 32.5526C207.662 31.4394 208.27 30.3087 208.27 29.1606C208.27 28.2561 207.87 27.4907 207.07 26.8644C206.305 26.2383 205.313 25.8729 204.096 25.7686V24.7248C206.079 24.8292 208.166 24.8813 210.357 24.8813C213.767 24.8813 216.15 24.8292 217.507 24.7248V25.7686C215.107 26.4296 212.532 28.1344 209.783 30.8827L208.427 32.2396L216.724 47.9996Z" fill="#CED4D9"/>
<path d="M73.0478 12.1481C72.0735 11.3827 70.682 11 68.8728 11C67.029 11 65.6199 11.3827 64.6458 12.1481C63.6717 12.9135 63.1846 14.0268 63.1846 15.488C63.1846 16.9492 63.6717 18.0625 64.6458 18.8279C65.6199 19.5933 67.029 19.9759 68.8728 19.9759C70.682 19.9759 72.0735 19.5933 73.0478 18.8279C74.0566 18.0625 74.5611 16.9492 74.5611 15.488C74.5611 14.0268 74.0566 12.9135 73.0478 12.1481Z" fill="#CED4D9" fill-opacity="0.5"/>
</svg>
