<svg width="240" height="64" viewBox="0 0 240 64" fill="none" xmlns="http://www.w3.org/2000/svg">
<path d="M57.5357 21.9961L49.7074 43.5942H43.6856L38.828 30.1857L33.8099 43.5942H27.7881L20 21.9961H25.9013L30.9998 36.6089L36.2989 21.9961H41.5981L46.7366 36.6089L51.9956 21.9961H57.5357Z" fill="#CED4D9"/>
<path d="M59.6442 21.9961H65.9068V43.5942H59.6442V21.9961ZM62.7755 18.9852C61.6247 18.9852 60.688 18.6507 59.9654 17.9816C59.2428 17.3125 58.8815 16.4829 58.8815 15.4926C58.8815 14.5024 59.2428 13.6727 59.9654 13.0036C60.688 12.3345 61.6247 12 62.7755 12C63.9264 12 64.8631 12.3212 65.5857 12.9635C66.3083 13.6058 66.6696 14.4087 66.6696 15.3722C66.6696 16.416 66.3083 17.2858 65.5857 17.9816C64.8631 18.6507 63.9264 18.9852 62.7755 18.9852Z" fill="#CED4D9"/>
<path d="M78.1825 43.9153C76.3893 43.9153 74.6363 43.7012 72.9235 43.273C71.2106 42.818 69.8457 42.256 68.8287 41.5869L70.9162 37.0907C71.8797 37.7062 73.0439 38.2147 74.4088 38.6162C75.7738 38.9909 77.1119 39.1782 78.4233 39.1782C81.0729 39.1782 82.3977 38.5225 82.3977 37.2111C82.3977 36.5956 82.0364 36.154 81.3138 35.8863C80.5912 35.6187 79.4805 35.3912 77.9817 35.2039C76.2154 34.9362 74.7568 34.6284 73.6059 34.2805C72.4551 33.9326 71.4515 33.317 70.595 32.4339C69.7654 31.5507 69.3505 30.2928 69.3505 28.6602C69.3505 27.2953 69.7386 26.0909 70.5148 25.0472C71.3177 23.9766 72.4685 23.147 73.9672 22.5582C75.4927 21.9694 77.2859 21.675 79.3467 21.675C80.8722 21.675 82.3843 21.8489 83.8831 22.1969C85.4086 22.518 86.6665 22.973 87.6567 23.5618L85.5692 28.0179C83.669 26.9474 81.5948 26.4121 79.3467 26.4121C78.0085 26.4121 77.0049 26.5994 76.3358 26.9741C75.6667 27.3488 75.3322 27.8305 75.3322 28.4193C75.3322 29.0884 75.6935 29.5568 76.4161 29.8244C77.1387 30.0921 78.2895 30.3463 79.8686 30.5872C81.6349 30.8816 83.0802 31.2027 84.2042 31.5507C85.3283 31.8718 86.3052 32.474 87.1348 33.3572C87.9645 34.2404 88.3793 35.4715 88.3793 37.0505C88.3793 38.3887 87.9779 39.5797 87.175 40.6235C86.3721 41.6672 85.1945 42.4835 83.6422 43.0723C82.1167 43.6343 80.2968 43.9153 78.1825 43.9153Z" fill="#CED4D9"/>
<path d="M104.568 21.675C107.244 21.675 109.399 22.4779 111.031 24.0837C112.691 25.6895 113.52 28.0714 113.52 31.2295V43.5942H107.258V32.193C107.258 30.4801 106.883 29.2089 106.133 28.3792C105.384 27.5228 104.3 27.0946 102.882 27.0946C101.303 27.0946 100.045 27.5897 99.1081 28.5799C98.1714 29.5434 97.703 30.9886 97.703 32.9156V43.5942H91.4404V13.8065H97.703V24.2443C98.5327 23.4146 99.5363 22.7856 100.714 22.3574C101.891 21.9025 103.176 21.675 104.568 21.675Z" fill="#CED4D9"/>
<path d="M131.16 21.675C133.167 21.675 134.987 22.1433 136.62 23.08C138.279 23.99 139.577 25.288 140.514 26.9741C141.451 28.6334 141.919 30.5738 141.919 32.7952C141.919 35.0165 141.451 36.9702 140.514 38.6563C139.577 40.3157 138.279 41.6137 136.62 42.5504C134.987 43.4604 133.167 43.9153 131.16 43.9153C128.404 43.9153 126.236 43.0455 124.657 41.3059V51.3823H118.394V21.9961H124.376V24.4851C125.928 22.6117 128.189 21.675 131.16 21.675ZM130.076 38.7768C131.682 38.7768 132.993 38.2415 134.01 37.171C135.054 36.0737 135.576 34.6151 135.576 32.7952C135.576 30.9752 135.054 29.53 134.01 28.4595C132.993 27.3622 131.682 26.8135 130.076 26.8135C128.47 26.8135 127.146 27.3622 126.102 28.4595C125.085 29.53 124.576 30.9752 124.576 32.7952C124.576 34.6151 125.085 36.0737 126.102 37.171C127.146 38.2415 128.47 38.7768 130.076 38.7768Z" fill="#CED4D9"/>
<path d="M155.586 43.9153C153.311 43.9153 151.263 43.447 149.443 42.5103C147.65 41.5468 146.245 40.222 145.228 38.5359C144.211 36.8498 143.703 34.9362 143.703 32.7952C143.703 30.6541 144.211 28.7405 145.228 27.0544C146.245 25.3683 147.65 24.0569 149.443 23.1202C151.263 22.1567 153.311 21.675 155.586 21.675C157.861 21.675 159.895 22.1567 161.688 23.1202C163.481 24.0569 164.886 25.3683 165.903 27.0544C166.92 28.7405 167.428 30.6541 167.428 32.7952C167.428 34.9362 166.92 36.8498 165.903 38.5359C164.886 40.222 163.481 41.5468 161.688 42.5103C159.895 43.447 157.861 43.9153 155.586 43.9153ZM155.586 38.7768C157.191 38.7768 158.503 38.2415 159.52 37.171C160.564 36.0737 161.086 34.6151 161.086 32.7952C161.086 30.9752 160.564 29.53 159.52 28.4595C158.503 27.3622 157.191 26.8135 155.586 26.8135C153.98 26.8135 152.655 27.3622 151.611 28.4595C150.568 29.53 150.046 30.9752 150.046 32.7952C150.046 34.6151 150.568 36.0737 151.611 37.171C152.655 38.2415 153.98 38.7768 155.586 38.7768Z" fill="#CED4D9"/>
<path d="M183.939 21.675C186.615 21.675 188.77 22.4779 190.402 24.0837C192.062 25.6895 192.891 28.0714 192.891 31.2295V43.5942H186.629V32.193C186.629 30.4801 186.254 29.2089 185.505 28.3792C184.755 27.5228 183.671 27.0946 182.253 27.0946C180.674 27.0946 179.416 27.5897 178.479 28.5799C177.543 29.5434 177.074 30.9886 177.074 32.9156V43.5942H170.812V21.9961H176.793V24.5253C177.623 23.6153 178.653 22.9195 179.884 22.4377C181.116 21.9292 182.467 21.675 183.939 21.675Z" fill="#CED4D9"/>
<path d="M220 13.8065V43.5942H214.018V41.1052C212.466 42.9786 210.218 43.9153 207.274 43.9153C205.24 43.9153 203.393 43.4604 201.734 42.5504C200.101 41.6405 198.817 40.3424 197.88 38.6563C196.943 36.9702 196.475 35.0165 196.475 32.7952C196.475 30.5738 196.943 28.6201 197.88 26.934C198.817 25.2479 200.101 23.9499 201.734 23.0399C203.393 22.1299 205.24 21.675 207.274 21.675C210.031 21.675 212.185 22.5448 213.737 24.2844V13.8065H220ZM208.358 38.7768C209.937 38.7768 211.248 38.2415 212.292 37.171C213.336 36.0737 213.858 34.6151 213.858 32.7952C213.858 30.9752 213.336 29.53 212.292 28.4595C211.248 27.3622 209.937 26.8135 208.358 26.8135C206.752 26.8135 205.427 27.3622 204.384 28.4595C203.34 29.53 202.818 30.9752 202.818 32.7952C202.818 34.6151 203.34 36.0737 204.384 37.171C205.427 38.2415 206.752 38.7768 208.358 38.7768Z" fill="#CED4D9"/>
</svg>
